<?xml version="1.0" encoding="UTF-8"?>
<svg id="Capa_1" xmlns="http://www.w3.org/2000/svg" version="1.1" viewBox="0 0 108.11 112">
  <!-- Generator: Adobe Illustrator 29.6.1, SVG Export Plug-In . SVG Version: 2.1.1 Build 9)  -->
  <defs>
    <style>
      .st0 {
        fill: #2c3036;
      }
    </style>
  </defs>
  <path class="st0" d="M107.76,28.32c.23.97.24,2.15-.28,3.19-.51,1.05-1.16,2.08-1.82,3.11-1.34,2.06-2.78,4.1-3.93,6.07-.28.45-.15-.27-.77.76-.54.96-1.21,2.03-1.96,3.16-.89,1.06-.92,2.59-1.19,4.03-.41,2.92-.96,5.98-1.87,8.48l.02-.33c-.32.95-.48,2.21-.95,3.17-.05-.01.08-.34-.09-.14.04.31-.78,1.77-.93,2.21-.27.34-.34.24-.69.67l-.17.62c-.56,1.69-2.38,3.42-3.64,5.42.04-.11.15-.32,0-.19-1.16,1.52-1.92,3.53-2.98,5.43-1.04,1.92-2.1,3.89-3.11,5.74.03-.18,0-.37-.18-.19.06.27-.54,1.43-1.08,2.43-.42.35-.83,1.77-1.61,2.85l.02-.12c-.35.95-.86,1.18-1.12,1.98-.17.15-.33.29-.51.41-.07.5-1.01,1.01-1.46,1.7l.06.02c-.46.62-.84.81-1.3,1.36l-.07.03c-1.12,1.24-1.95,1.77-1.78,1.9-.54.28,1.13-1.16.29-.71-3.83,3.93-8.69,6.96-13.58,9.46-.6.2-.96.36-1.13.35-.47.29-1.84.94-2.25,1.25.17-.08-.37.05-.64.16-.94.34-.92.64-1.97.97.39-.22.5-.33.33-.35-.81.51-2,.91-3.03,1.31.15-.09.4-.2.34-.24-1.09.57-2.11.66-3.09,1.07l.35-.23c-1.68.34-.41.4-1.86.71.33-.13.2-.14.25-.21-1.26.6-3.45,1.07-4.77,1.46.08-.04.05-.06.05-.06-1.45.37-3,.64-4.59,1.07-.6.07.13-.34-1.41.04.11.24-2.62.63-1.65.72-1.34.22-3.48.45-4.36.67.59-.18-.7-.2.41-.39l-.86-.02c.11-.11.87-.09.59-.18-.56.09-2.17.42-2.67.45-1.01.29-1.93.69-3.61.93.78-.19-.48-.21.05-.32l-2.29.74c-.56.08-.14-.18-.95-.02.05.06-.3.14-.54.22-.21,0-2.32.32-2.59.1-.26-.07.91-.15.28-.17-1.03.11-1.07.2-2.11.31l-.02-.03c-.69.04-2.01.3-1.25.36.48-.04-.19-.13.52-.12-.47.18-1.67.34-2.72.42.35-.07.31-.13.44-.21-.35.07-.7.14-1.08.19-.36.05-.72.1-1.08.14-.76.09-1.56.11-2.38.05-.03.12.63-.14.86-.08-2.03-.23-4.39-.59-5.71-1.87.25.15.04.22.04.19-.85-.6-.66-.74-1.21-1.12.02-.11-.61-.56-1.06-1.08-.26-.24-.08-.16.31.28-.31-.34-1.17-1.21-1.73-2.48-.58-1.24-.88-2.73-.9-3.82-.07.05-.34-1.32-.27-1.87l.14.21c.09-.51.21-1.7.36-1.75.02-.52-.18.44-.23,1.47-.02,1.01.13,1.92.01,1.21.05-.19-.02-.68-.04-1.12-.02-.46,0-.78.08-.61.14-.99.2-1.96.58-2.83-.09.26,0,.82.19.06.35-1.33.04-.4.3-1.48l.14-.68c-.12-.09.34-1.15.05-.71.17-.11.41-1.91.61-1.72l.14.23c.12-.57.02-.98.04-1.45.03-.07.11-.21.13-.18-.27-.16.32-1.37.24-2.1.35-1.19.62-3.07.91-3.61.08-.95.14-1.82.39-2.87,0,.22-.05.51,0,.58.2-.65.15-.83.21-1.45.02.14.4-1.31.61-2.04.06-.95-.14-.65-.23-.76.41-.81.22-2.66.6-3.69,0,.33-.04,1.38.14.61.39-.82.03-1.75.31-3.11l-.28.31c.22-.6.08-2.04.31-1.88-.05-.47.22-1.62-.02-1.48.18-1.12.24-2.5.25-3.76,0-1.25-.02-2.39.13-3.1-.06-.32-.1-1.13-.2-.96-.08.55.16.74.09.95-.03-.29-.1-.35-.13-.38,0-.71-.05-1.26.21-.61-.02-1.58-.55-1.57-.74-3.55.11.07.12-.08.02-.65l-.35-1.06c-.2-1.27.08-.76.24-.82-.16-.67-.33-1.5-.52-1.78v-.86c0,.63-.22-.53-.36-.83l.12.3c.03-.14-.22-.9-.36-1.28-.07.12.12.91.2,1.34-.16-.32-.29-.85-.5-1.27.21.11-.24-1.12-.39-1.65-.16-.62-.36-.64-.41-.82.08-.04-.31-1-.04-.55.09.2.08.5.26.82-.07-.42.08-.41-.29-1.21-.28-.6-.25.25-.54-.97.14.3.22.34.35.57l-.28-1.13h-.16c-.01-.17.03-.07.03-.14-.26-.29-.59-1.69-.84-1.9-.2-.56-.28-1.21-.44-1.75l.05.1c-.13-.67-.46-1.53-.74-2.06l.04.02C.33,39.95.14,39.07,0,38.51c.02-.56.18-.65.29-.74.11-.1.16-.2.18-.78.22-1.03.36-1.65.06-1.31.46-.87,1.05-1.7,1.71-2.41.66-.75,1.57-1.33,2.32-1.6.2-.18.04-.13.49-.41,2.34-1.13,4.78-2.45,6.67-3.13-.62.39.02.15.08.22.47-.39.7-.21.79-.51-.12-.09-.09-.17-.74.1,1.3-.73,3.25-1.86,4.01-2.2-.38.17-.13-.04.12-.24.01.23.98-.31,1.61-.85l.02-.17.52-.19c.24-.21.13-.41.86-.81.06.01.13.03.27-.03.64-.58,1.43-1.49,2.21-2.01l.7-.36c.29-.28.72-.81.15-.38,1.27-.97,2.03-1.67,2.51-1.9,1.75-2.17,4.43-5.07,6.65-7.46v.14c.67-.58.19-.45.66-.85-.13.27.61-.35.21.23.94-.84,1.02-1.28,1.59-1.89,0-.18-.43.52-.42.29.06-.14,1.37-1.14,1.42-1.4.3-.15.19.12.11.29.19-.19.36-.39.56-.57.87-.43-1.44,1.7-.48,1.27l.53-.48c.64-.27-1.29,1.36.11.29.52-.56.92-1.16.3-.82.63-.51.74-.7.86-.9.12-.2.26-.42,1.01-.84.47-.15-1.19.73-.82.71.78-.31,1.37-.91,2.04-1.21-.74.32-.24-.18.21-.45.83-.32-.43.42.7-.13.13-.2,1.14-.77.2-.41.3-.43,1.21-.51,1.75-.96.44,0-1.01.91.28.42-.27-.07,1.47-.88.7-.83.52-.16.62-.06.3.19.75-.2,1.63-.98,1.98-.75l.19-.25c.25-.03.59-.11.99-.14.64-.22,2.02-.89,2.04-.61.19-.1,1.73-.47,1.1-.5-.99.13-1.05.42-1.64.33.71,0,1.34-.41,1.9-.61l.12.08c.37-.12,1.07-.22,1.27-.37-.24.1-.1.15.17.12l.31-.21c1.33-.3.36.21,1.66-.03l-.97.27c.21-.06.67,0,1.29-.12.22-.17.67-.39.87-.52C55.33-.05,54.92.2,55.66,0l-.96.25c-.14.06.67.16,1.67.12.63-.07,1.65-.27.62-.34.51,0,1.23.1.82.19,1.16,0-.15-.16.86-.2.39.11,1.69.37,2.43.72-.34-.01-.74,0-1.09.01l.7.13c-.94.01.42.23-.12.33.44.13.99.2,1.43.27-1.2-.67,1.56-.01,1.26-.39,1.77.45.88,1.01,2.82,1.14-.27-.17.64-.1-.47-.37,1.06.38.82-.04,2.04.49-.97-.2.91.61-.49.33.12-.06-.73-.31-.95-.36.41.25-.18.25.91.6.67.19,1.59.49,1.51.3.02-.17-1.02-.32-.54-.34,1.35.39,1.48.7,2.13.61-.84-.26-1-.49-.95-.6l1,.26-.22.04c1.53.6.52-.03,2.03.51l.64.45c-.42.05-2.17-.83-2-.45.98.35,1.35.31,2.25.7-.22-.05-.5-.13-.71-.18.35.13.57.63,2.04.89.75.16.23-.04.28-.14,1.58.51,2.09.57,3.11.9-.28.14,1.77.64.59.47-.47-.3-2.74-1.08-3.37-1.08.49.45-1.22-.46-1.65-.33,1.26.44,1.11.67,1.26.9.35.13.71.18.92.23.2-.1-.26-.26-.23-.42,1.39.53,2.77.92,3.59,1.04.43.23.24.34-.32.16,1.67.51,3.49,1.06,5.07,1.61-.96-.57,1.8.49,1.16.07-.84-.32-1.52-.73-1.02-.69.53.18-.05.1.16.23.72.07.99.55,1.73.54-1.56-.39-.39.21-.73.32,1.14.23-.09.13,1.01.46,1.14.23,2.53.56,3.77.9,1.51.67,3.89,1.2,5.33,1.64.76.37.14.4.9.8.84.55-.49-.63.7.29l-.15-.04c.21.1.71.56,1.17,1.04.46.48.9.98,1.17,1.04l-.48-.19c.15.22.36.38.51.54-.06.06.07.35-.23.04.41.8,1.12,1.47,1.69,2.25l-.24-.59c1.06,1.25,1.54,2.28,2.72,3.27l-.13.08c.25.18.52.33.8.48-.27,0,.41.53.87.74-.72-.41-1.52-.66-2.21-1.2-.45-.53.68.39.45-.02-.22-.3-1.18-1.37-1.43-1.49.34.45.38.45.71.74-.03.28-.59-.37-.95-.63.18.23.42.6.5.61-.46-.38-.83-.85-1.4-1.63.45.49-.11-.36.09-.19-.19.04-.76-.69-1.43-1.66-.34-.8-1.45-1.68-2.43-2.51.52.18,1.15.56,1.75,1.14-.52-.7-.64-.71-1.24-1.35-.41-.15-.76-.23-1.73-.57v-.14c-.94-.24-1.03-.05-2.26-.47-2.12-.72-4.32-1.4-5.95-1.92l-.02-.15c-.99,0-3.05-.83-4.31-1.09-2.04-.75-4.57-1.27-5.53-1.89-3.65-1.17-6.85-2.17-10.6-3.45l.69.02c-.72-.09-.4-.25-1.08-.44.71.39-.98-.11-1.48-.14-1.63-.65-3.86-1.23-5.32-1.19l-.05-.14c-1.54.1-3.36-.06-5.3.16-.23-.03-.6-.1-1.17,0-.99.4-1.59.45-3.01.95-1.08.27-2.84.8-3.94,1.13-1.94.89-3.89,1.79-5.78,2.82-1.94,1.02-3.63,2.19-5.11,3.83l-.34.11c-1.38,1.63-2.98,3.45-4.61,5.16-1.63,1.71-3.29,3.29-4.6,4.63l.08-.44c-.91.74-1.93,1.85-1.59,1.79-.92.72-2.16,2.02-2.9,2.32-1.01.68-1.11,1.01-1.93,1.6-2.07,1.28-2.84,1.76-4.82,2.91l.5-.26c.19-.17.15-.28-.35-.02-.7.49-2.8,1.38-1.9,1.29-2.24.95-5.08,2.53-7.12,3.4.21-.01-.28.27-.42.44-.42.28-.7.46-1.05.82-.35.33-.66.68-.93,1.04-.54.71-.82,1.46-.8,2.1-.07.26-.11-.43-.17.24.04.4.1,0,.18.5.06.34.14.68.26,1.13l.4,1.21c.24.81.48,1.62.72,2.42.46,1.61.9,3.19,1.39,4.65.45,1.29.94,2.58,1.31,3.99.38,1.38.68,2.78.93,4.18.49,2.81.81,5.57.9,8.31l-.07-.06c.3,1.85-.34,4.24-.1,5.69-.1.42-.17,1.61-.27,1.28.03,1.44-.6,3.94-.69,5.99.03-.19.04-.29.04-.51-.43,2.03-.53,3.86-1.03,5.99.01-.22.06-.62,0-.7-.26.81-.08,2.01-.47,2.41-.08.48.09.37.14.07-.48,2.35-.97,4.77-1.47,7.21-.25,1.21-.54,2.49-.88,3.7-.33,1.2-.65,2.37-.86,3.52-.1.4-.18.71-.23.94-.06.2-.09.34-.12.44-.06.2-.11.21-.15.19-.06-.04-.14-.17.05,1.14-.04.22.13.14.07.19.19.99-.11,1.63.24,2.28.1-.33.24.41.36.4.28.95.51,1.5.77,1.97.3.46.58.9,1.19,1.41l-.15-.02c.75.57,1.54,1.17,2.41,1.56.86.4,1.76.62,2.54.61.61.12,1.24.16,1.87.18.66.01,1.22-.04,2.01-.08,1.25-.08,2.66-.24,3.99-.38,2.69-.3,5.37-.62,8.03-.98,2.66-.35,5.31-.73,7.93-1.17,1.31-.22,2.62-.45,3.89-.73,1.31-.28,2.63-.57,3.94-.86,5.16-1.1,10.23-2.46,14.98-4.45,4.71-2.13,9.42-4.58,13.7-7.65,2.12-1.3,2.29-1.41,4.23-3.32-.05.1-.17.23,0,.13-.05-.25,1.37-1.34,1.39-1.69.69-.69,1.33-1.4,1.94-2.11.3-.36.62-.74.89-1.08.23-.3.49-.72.74-1.11,1-1.61,1.96-3.31,2.98-5.08-.3.57-.31.95.06.27l.28-.77.12-.08c.23-.47.42-1.03.1-.59,1.24-2.26,2.47-4.51,3.7-6.75l.83-1.56c.23-.5.47-.84.66-1.1l.6-.81,2.32-3.02c1.49-2,2.89-4.07,3.84-6.24.93-2.19,1.46-4.62,1.83-7.07.23-1.16.4-2.59.59-4.09.11-.76.2-1.52.43-2.37.08-.23.11-.42.25-.68l.19-.37.17-.25c.19-.29.38-.57.57-.85,2.33-3.1,4.52-6.05,6.56-9.11.5-.76,1.01-1.54,1.46-2.32.48-.82.81-1.44.88-2.27.17-1.59-.43-3.46-1.37-4.85,0,0,.23.06.66.55.4.48,1.04,1.37,1.31,2.93Z"/>
  <path class="st0" d="M52.59,73.05c1.56-.05,1.26.62,1.15,1.31-.72,4.88-2.49,9.26-5.27,12.74-2.31,2.89-11.25,6.19-16.39,7.91-2.46.82-5.13.77-7.55-.16-5.19-2-14.11-6.22-17.12-12.42-2.68-5.51-4.39-19.22-4.39-19.22,0,0-.26-8.55-.09-12.71.31-7.38,1.39-14.17,3.76-19.71,4.16-9.69,12.29-15.51,27.2-13.79,7.39.85,12.81,4.08,16.23,9.57,1.14,1.83,2.06,3.92,2.75,6.25.17.56-.07,1.17-.55,1.49l-2.98,1.95c-.28.18-.63.26-.94.15-.84-.3-.86-1.18-1.04-1.67-.62-1.73-1.33-2.62-1.98-4.21s-1.56-3.1-2.69-4.43c-2.39-2.84-6.82-7.29-11.29-7.62-5.03-.38-10.03,2.63-13.04,4.91-1.8,1.37-3.17,3.22-3.99,5.33l-5.62,14.51c-.68,1.76-.95,3.64-.79,5.52.63,7.36,2.64,26.81,6.87,34.71,2.74,5.12,7.01,8.75,13.59,9.27,8.85.71,15.47-9.29,17.84-13.48.58-1.02.98-2.12,1.19-3.27.16-.85.39-1.88.69-2.59.09-.21.3-.34.53-.34h3.9Z"/>
  <path class="st0" d="M107.02,58.64c-.89-2.5-2.05-5.23-3.28-6.61-2.81-3.18-6.67-5.06-11.29-5.37-4.3-.29-9.78,3.55-11.62,4.94-.37.28-.7.6-1,.97-.93,1.14-3.48,3.95-5.95,3.95-.02,0-.04,0-.07,0-.76,0-1.39-.48-1.82-.94-.41-.43-.63-1.02-.63-1.64,0-1.25.12-3.57.96-4.58,1.81-2.16,8.92-3.4,8.92-3.4,0,0,4.57-.8,6.45-1.63,2.96-1.31,5.31-3.1,6.78-6.45,1.01-2.32,1.62-5.25,1.93-7.09.21-1.26.13-2.56-.23-3.77-.44-1.5-1.23-3.56-2.49-5.21-2.02-2.64-5.41-3.95-8.32-4.36,0,0-12.73-.96-21.24-.47-1.44.08-4.3.39-5.73.74-.02,0-.03.02-.05.02-.99.31-1.48,2.28-1.38,3.21.18,1.65.41,3.76.73,6.79.18,1.74.4,3.77.65,6.2.65,6.23-.01,11.69-.65,16.41-.43,3.17-.84,6.01-.84,8.52,0,10.33.57,15.37.85,19.32.13,1.81.19,3.39.1,5.15-.08,1.66.03,5.85.22,7.54.11.99.94,3.13,2.68,3.61.33.09.7.13,1.1.08.26-.03.54-.06.82-.08h5c2.46,0,7.39-.01,7.39-.01,0,0,5.24-.05,8.27-.22,1.61-.09,7.17-.49,11.35-2.07,7.3-2.76,11.24-15.43,12.95-22.82.83-3.56.63-7.31-.58-10.73ZM103.51,67.32l-2.09,8.31c-3.29,10.08-6.51,10.45-9.63,12.21-3.47,1.96-7.31,3.22-11.2,2.99-4.09-.24-4.25.03-13.25.03-2.02,0-3.48-1.36-4.15-2.27-.91-1.24-.54-3.97-.72-6.87-.51-8.05-.56-19.52.11-23.9.01-.09.03-.19.04-.27.35-2.06,1.08-5.03.65-9.29-.07-.72-.54-11.21-.29-14.39.27-3.36-1.1-7.63-.76-10.15.33-2.51,2.9-3.36,6.14-3.67,3.84-.37,12.48.5,13.48.52,3.2.04,6.35,3.36,7.19,4.84,1.08,1.9,2.28,5.68,2.08,8.12-.12,1.51-.81,2.9-1.91,3.81-2.26,1.87-7.69,4.94-10.91,5.61-3.24.68-6.73,2.36-9.3,4.71-1.43,1.3-3.29,2.55-3.17,5.64.23,6.07,3.37,6.96,5.41,7.21,1.63.2,3.57.29,4.52-.23,2.2-1.19,12.98-7.41,16.09-7.78,2.58-.31,6.35.54,8.33,2.45,2.73,2.63,4.04,9.56,3.34,12.37Z"/>
</svg>