<?xml version="1.0" standalone="no"?>
<!DOCTYPE svg PUBLIC "-//W3C//DTD SVG 20010904//EN"
 "http://www.w3.org/TR/2001/REC-SVG-20010904/DTD/svg10.dtd">
<svg version="1.0" xmlns="http://www.w3.org/2000/svg"
 width="1163.000000pt" height="789.000000pt" viewBox="0 0 1163.000000 789.000000"
 preserveAspectRatio="xMidYMid meet">

<g transform="translate(0.000000,789.000000) scale(0.100000,-0.100000)"
fill="#000000" stroke="none">
<path d="M6062 6843 c-16 -11 -41 -16 -72 -14 -98 4 -354 -101 -428 -176 l-44
-44 -57 7 c-51 5 -60 4 -86 -19 -17 -13 -62 -40 -100 -60 -128 -64 -203 -130
-439 -390 -57 -63 -105 -106 -135 -122 -56 -28 -67 -43 -111 -148 -20 -48 -44
-87 -63 -103 -27 -23 -38 -26 -87 -21 -73 6 -91 -2 -172 -78 -63 -60 -72 -65
-113 -65 -25 0 -45 -4 -45 -8 0 -5 -6 -17 -14 -28 -14 -18 -16 -17 -58 23 -85
83 -126 62 -88 -44 40 -108 43 -123 28 -145 -20 -29 -233 -137 -250 -127 -16
11 -109 11 -124 1 -6 -4 -23 -31 -38 -59 -16 -33 -38 -58 -56 -68 -30 -16 -31
-16 -14 -44 22 -38 13 -59 -28 -63 -26 -2 -33 -7 -33 -24 0 -12 -10 -30 -23
-40 l-22 -19 20 -84 c17 -70 19 -102 14 -182 -8 -114 -3 -141 30 -158 13 -8
27 -24 30 -37 5 -17 16 -25 42 -30 42 -8 71 -46 107 -144 57 -150 81 -360 81
-695 0 -287 -3 -308 -104 -744 -67 -291 -78 -351 -63 -351 16 0 43 35 43 56 1
18 1 18 14 1 12 -16 16 -16 42 -2 33 17 100 20 109 5 3 -5 -23 -24 -60 -42
-49 -25 -65 -37 -65 -53 0 -12 -14 -42 -30 -67 -29 -44 -30 -48 -19 -93 6 -25
9 -48 6 -51 -3 -3 -21 6 -40 20 -24 18 -46 26 -75 26 l-42 0 0 40 c0 33 3 40
20 40 18 0 20 7 20 75 0 43 6 90 14 110 15 34 15 35 -14 50 -16 8 -33 23 -39
32 -18 32 -43 1 -68 -80 -25 -81 -53 -113 -118 -134 -50 -15 -65 -6 -95 63
-32 70 -46 77 -102 48 -22 -11 -43 -14 -74 -9 -39 6 -49 2 -102 -34 -66 -44
-81 -64 -105 -135 -21 -63 -50 -93 -100 -107 -84 -23 -181 15 -277 108 l-64
63 -26 -25 c-14 -14 -31 -25 -37 -25 -5 0 -40 14 -77 30 l-66 30 0 90 c0 72
-3 92 -15 96 -8 4 -21 1 -28 -5 -8 -6 -33 -8 -63 -5 -71 8 -101 -7 -126 -63
-11 -27 -47 -76 -79 -110 -67 -70 -72 -93 -35 -148 44 -64 48 -202 7 -270
l-19 -33 21 -66 c18 -53 26 -66 43 -66 12 0 36 -3 53 -6 28 -6 31 -10 31 -45
0 -36 2 -39 28 -39 16 0 53 5 84 10 51 10 61 8 145 -24 122 -47 191 -82 236
-122 47 -43 94 -45 170 -8 82 40 113 27 131 -58 4 -17 26 -42 63 -70 35 -27
66 -62 83 -92 23 -43 38 -56 117 -100 109 -61 139 -87 164 -143 26 -60 47 -68
116 -47 53 17 58 17 86 1 l30 -18 -15 23 c-8 13 -23 36 -34 52 -18 28 -18 29
0 40 85 50 86 88 2 135 -62 36 -80 55 -73 75 8 21 58 45 114 55 41 8 48 7 68
-15 30 -32 49 -30 104 10 81 59 109 70 150 57 20 -6 50 -12 66 -13 22 -2 31
-9 33 -25 3 -18 -4 -24 -35 -32 -21 -6 -45 -11 -53 -11 -33 0 -135 -32 -152
-47 -22 -20 -24 -81 -4 -109 13 -17 25 -19 109 -16 108 3 122 -5 121 -70 -1
-37 -1 -38 13 -18 8 12 26 48 39 82 14 33 32 71 41 85 31 47 100 66 146 41 59
-32 219 -26 322 13 76 28 106 23 128 -23 18 -37 18 -38 -2 -64 -25 -31 -27
-75 -6 -134 8 -23 15 -59 15 -80 0 -37 1 -38 65 -64 54 -21 75 -25 119 -20 35
4 56 3 60 -5 11 -17 53 -13 60 5 3 9 6 26 6 39 0 12 8 33 18 45 23 29 47 24
122 -25 52 -34 71 -38 111 -21 11 5 20 -3 32 -29 23 -48 46 -45 80 10 34 53
49 55 127 19 30 -14 70 -26 88 -27 33 -2 34 -1 38 43 3 31 11 51 26 63 27 22
55 17 121 -24 l49 -29 60 40 c86 57 88 57 81 -50 -6 -87 -5 -90 15 -90 12 0
27 9 34 20 20 31 39 23 93 -40 28 -33 55 -58 60 -56 6 1 23 23 39 49 22 36 28
57 27 101 l0 56 23 -15 c21 -14 27 -14 59 1 50 24 63 14 77 -53 17 -81 7 -173
-25 -228 -36 -60 -31 -86 20 -103 32 -11 55 -12 115 -3 41 6 78 17 82 24 4 6
7 64 6 127 -1 98 2 129 25 210 33 117 33 137 2 180 -13 18 -30 49 -36 69 -6
20 -24 50 -39 66 -38 42 -42 60 -19 89 28 35 53 33 91 -9 35 -40 55 -41 50 -3
-4 32 29 121 68 181 39 62 61 62 125 -3 32 -32 58 -50 73 -50 22 0 24 3 20 37
-3 21 -1 48 3 61 8 19 13 22 47 16 33 -5 43 -2 81 30 24 20 52 36 63 36 18 0
19 -4 13 -40 -6 -36 -5 -40 14 -40 19 0 20 -3 10 -22 -7 -12 -27 -36 -45 -53
-41 -39 -48 -58 -84 -217 -36 -155 -70 -226 -144 -296 -79 -74 -74 -94 28
-113 102 -19 355 23 435 72 19 11 40 37 49 59 10 22 21 38 27 37 5 -2 13 -25
17 -51 7 -53 22 -76 48 -76 21 0 460 186 475 201 5 5 10 40 10 77 l0 67 50 23
c111 50 120 56 120 82 0 24 -3 25 -55 24 -34 -1 -79 -11 -119 -28 -35 -14 -66
-24 -68 -22 -3 2 0 21 6 42 6 21 9 40 6 42 -2 2 -17 -4 -34 -14 -29 -17 -30
-17 -69 9 l-40 26 -21 -25 c-24 -28 -57 -33 -47 -8 4 9 1 23 -5 30 -13 15 -4
34 17 34 19 0 18 10 -6 35 -18 19 -19 26 -9 49 16 33 10 38 -70 65 -82 27 -81
27 -68 -9 15 -39 4 -47 -38 -27 -45 21 -43 22 -47 -10 -2 -19 -10 -29 -23 -31
-33 -6 -55 -33 -55 -68 0 -27 5 -34 33 -44 25 -10 28 -14 14 -17 -26 -6 -85 5
-93 18 -3 6 4 20 16 31 14 13 19 26 14 37 -28 67 -28 68 -6 133 25 75 27 101
8 117 -9 8 -22 8 -44 0 -41 -14 -97 -8 -97 11 0 12 13 14 67 12 67 -4 67 -4
87 29 11 19 25 57 31 86 15 68 31 88 163 189 172 132 217 191 217 286 1 71 24
118 105 208 79 89 88 104 116 207 30 108 45 135 138 238 119 131 156 192 192
309 49 160 77 203 207 324 63 59 120 119 128 134 19 36 18 92 -2 109 -24 20
-44 65 -44 101 0 18 14 71 30 118 23 66 36 91 62 110 91 69 104 101 74 175
-13 31 -51 63 -63 51 -3 -2 1 -28 8 -56 11 -44 11 -52 -3 -67 -16 -15 -19 -15
-42 1 -20 12 -26 25 -26 50 0 29 9 43 58 88 32 29 98 97 145 150 48 53 106
107 129 120 52 28 68 58 58 103 -6 26 -3 41 12 66 15 25 18 42 13 79 -6 44 -3
53 34 112 69 109 77 205 27 328 -14 35 -26 76 -26 91 0 62 -23 84 -140 132
-55 22 -94 61 -190 187 -147 192 -195 226 -364 259 -64 12 -105 15 -145 9 -75
-10 -97 -5 -174 46 -67 44 -180 90 -362 146 -91 29 -109 31 -200 27 -55 -2
-109 0 -120 5 -11 5 -34 31 -52 57 -28 44 -41 52 -139 95 -121 53 -194 77
-309 99 -44 9 -114 26 -155 38 -58 17 -104 22 -200 23 -116 1 -129 3 -177 29
-59 31 -97 33 -131 10z m134 -25 c57 -27 76 -31 128 -28 112 7 153 2 288 -33
73 -19 155 -38 183 -42 50 -7 207 -65 295 -110 28 -14 57 -39 70 -59 43 -70
62 -78 171 -70 93 6 102 5 217 -30 171 -52 284 -98 360 -148 l66 -43 99 3
c104 2 235 -21 298 -54 53 -27 118 -94 212 -217 101 -133 121 -151 229 -201
79 -38 98 -62 98 -121 0 -12 11 -48 24 -81 49 -121 42 -204 -25 -316 -37 -62
-41 -73 -36 -113 5 -35 2 -52 -13 -77 -14 -24 -17 -42 -13 -78 6 -52 5 -53
-68 -100 -25 -16 -70 -58 -100 -92 -29 -35 -94 -103 -142 -151 -83 -82 -89
-91 -83 -120 10 -55 68 -86 96 -52 12 15 10 64 -5 98 -11 27 12 21 31 -8 9
-14 17 -44 18 -66 1 -35 -4 -45 -34 -71 -19 -17 -47 -41 -61 -53 -29 -27 -81
-168 -82 -227 -1 -27 7 -50 31 -83 56 -79 52 -89 -102 -239 -148 -145 -165
-172 -214 -331 -37 -118 -78 -186 -186 -304 -94 -103 -118 -143 -145 -244 -28
-103 -39 -122 -117 -209 -86 -96 -97 -119 -104 -209 -6 -68 -10 -82 -44 -128
-23 -31 -90 -92 -165 -151 -70 -54 -135 -110 -144 -124 -10 -14 -23 -52 -31
-84 -7 -32 -20 -68 -27 -81 -13 -21 -19 -22 -80 -16 -53 5 -68 4 -78 -9 -11
-13 -11 -19 0 -32 11 -14 26 -15 82 -11 50 4 69 3 73 -7 2 -6 -4 -41 -16 -77
-23 -75 -24 -91 -8 -135 11 -30 9 -35 -13 -53 -22 -18 -22 -21 -9 -35 16 -16
96 -36 118 -28 23 7 12 33 -18 43 -21 8 -30 17 -30 33 0 29 32 58 54 50 12 -5
18 1 22 25 8 36 6 36 46 15 29 -15 32 -15 44 1 9 13 10 23 3 36 -7 14 -6 19 3
18 24 -1 113 -36 111 -42 -14 -40 -14 -60 2 -77 17 -19 17 -20 -11 -31 l-29
-11 22 -18 23 -18 -21 -25 c-17 -22 -18 -29 -7 -47 8 -12 23 -20 40 -20 30 0
38 14 13 24 -19 7 -20 26 -2 26 8 0 22 9 32 20 17 19 18 19 59 -5 40 -23 43
-24 66 -8 23 16 23 16 17 -9 -4 -15 -10 -33 -13 -42 -9 -23 9 -20 106 14 89
31 134 37 145 20 11 -18 -14 -38 -86 -66 -38 -15 -75 -34 -82 -42 -7 -9 -12
-43 -12 -81 l0 -65 -230 -99 c-166 -71 -234 -96 -245 -89 -8 5 -20 33 -25 63
-8 42 -15 55 -30 56 -15 2 -25 -8 -40 -40 -15 -31 -32 -48 -66 -65 -129 -64
-441 -85 -474 -32 -4 6 20 36 54 69 75 72 110 144 141 291 32 147 44 176 95
231 47 50 59 89 27 89 -15 0 -17 6 -14 34 7 58 -35 56 -106 -5 -36 -32 -40
-33 -76 -19 -37 14 -61 -23 -51 -80 9 -54 -4 -52 -70 11 -55 52 -90 64 -119
40 -24 -20 -87 -155 -93 -199 l-6 -42 -38 35 c-22 19 -44 35 -50 35 -18 0 -69
-57 -69 -77 0 -11 15 -37 33 -59 18 -21 41 -60 51 -86 10 -26 22 -51 27 -54
30 -18 29 -57 -2 -182 -27 -111 -30 -135 -24 -208 9 -116 7 -120 -71 -133 -71
-13 -141 -1 -151 24 -3 8 8 36 23 62 27 44 29 56 29 148 0 102 -14 159 -41
169 -8 3 -30 -2 -49 -11 -33 -16 -37 -16 -70 0 -46 22 -46 22 -35 -9 17 -44
11 -95 -15 -141 -14 -23 -28 -43 -31 -43 -3 0 -30 27 -61 60 -30 33 -61 60
-68 60 -7 0 -20 -11 -29 -25 -30 -46 -38 -30 -30 65 l7 90 -26 0 c-13 0 -48
-16 -76 -35 -56 -38 -73 -42 -91 -21 -19 24 -96 49 -125 42 -29 -7 -55 -56
-55 -101 0 -23 -3 -25 -27 -19 -16 4 -50 18 -78 31 -27 12 -64 23 -82 23 -28
0 -36 -6 -59 -45 -14 -25 -30 -45 -35 -45 -5 0 -17 16 -26 35 -18 37 -31 42
-64 24 -17 -9 -32 -3 -88 30 -37 23 -79 41 -94 41 -30 0 -57 -32 -57 -70 0
-14 -5 -32 -10 -40 -8 -13 -13 -13 -37 2 -22 12 -38 14 -73 8 -37 -7 -55 -4
-108 17 -58 24 -63 28 -59 51 3 14 -4 50 -14 80 -25 72 -24 100 3 129 21 23
21 26 8 66 -23 65 -51 74 -142 42 -52 -19 -102 -28 -173 -32 -88 -5 -106 -3
-146 15 -82 38 -142 5 -190 -103 l-33 -73 -18 29 c-15 25 -38 35 -70 30 -4 0
-37 -1 -74 -2 -74 -2 -94 11 -94 61 0 42 29 59 136 81 111 24 143 44 125 78
-8 14 -21 21 -43 21 -17 0 -46 5 -63 11 -41 15 -68 8 -129 -33 -102 -69 -92
-66 -121 -34 -23 25 -30 27 -68 21 -55 -9 -125 -42 -138 -66 -8 -16 -5 -25 19
-47 16 -15 50 -39 76 -55 32 -18 46 -33 44 -44 -3 -16 -53 -56 -81 -66 -8 -2
-6 -12 7 -31 9 -15 16 -29 14 -31 -13 -12 -86 -35 -113 -35 -30 0 -35 4 -50
44 -22 58 -50 83 -165 149 -83 47 -98 60 -121 103 -15 29 -45 64 -75 86 -59
45 -74 64 -74 95 0 32 -34 63 -70 63 -17 0 -53 -11 -80 -25 -69 -35 -102 -33
-149 10 -39 35 -151 91 -269 135 -58 21 -68 22 -133 11 -39 -6 -74 -9 -80 -6
-5 4 -9 24 -9 46 l0 39 -52 0 -53 0 -19 60 c-18 59 -18 60 3 103 39 80 21 261
-28 291 -24 15 -8 50 48 109 32 34 68 83 79 110 25 57 52 70 126 61 35 -4 56
-3 60 5 17 26 26 -6 26 -89 l0 -89 77 -36 76 -35 31 24 31 24 58 -54 c101 -93
202 -130 293 -105 53 14 78 42 106 121 20 57 30 70 84 111 58 44 65 46 111 42
34 -4 59 0 81 11 17 9 36 16 42 16 6 0 22 -25 35 -55 13 -30 36 -62 50 -71 24
-16 28 -15 73 1 65 25 96 62 117 140 10 36 22 68 26 70 4 3 23 -5 43 -17 24
-16 33 -28 29 -38 -4 -8 -8 -53 -11 -99 -4 -71 -7 -84 -23 -88 -16 -4 -19 -15
-19 -58 l0 -53 40 5 c35 5 48 1 85 -26 54 -39 69 -40 61 -4 -18 80 -19 104 -1
123 9 10 23 36 30 57 10 32 22 43 79 73 66 35 80 53 50 64 -25 9 -103 7 -124
-4 -15 -8 -22 -4 -39 18 l-20 27 -1 -36 c0 -20 -7 -42 -15 -49 -19 -16 -20
-23 61 332 98 427 99 431 98 748 0 361 -22 540 -86 701 -34 86 -67 127 -108
135 -18 4 -30 14 -34 28 -3 11 -19 29 -36 38 l-31 18 3 132 c2 91 -2 153 -12
196 -14 62 -14 64 7 80 12 9 23 26 25 37 2 13 12 21 31 23 37 4 50 31 31 67
-13 25 -12 29 3 41 10 7 21 14 25 14 3 0 18 24 33 54 17 34 34 56 48 60 34 9
74 7 101 -5 20 -10 29 -8 53 8 15 11 67 38 114 60 71 33 88 46 99 73 13 30 12
39 -10 94 -12 34 -25 78 -27 98 -4 33 -3 36 15 31 11 -2 37 -22 58 -44 44 -45
70 -49 86 -13 9 18 17 24 31 20 33 -8 88 22 153 84 l63 60 69 -2 c90 -2 120
18 162 110 60 132 63 136 117 165 34 18 82 60 135 120 226 251 318 333 446
397 37 19 80 44 95 57 24 20 35 22 85 17 l58 -6 50 49 c40 39 75 60 160 96
144 60 216 80 262 73 27 -5 45 -1 67 13 41 27 53 26 131 -11z m1287 -5307 c-9
-12 -25 20 -18 36 7 16 9 15 15 -7 4 -14 5 -27 3 -29z"/>
<path d="M8682 6265 c-22 -48 -15 -71 36 -112 26 -21 51 -45 56 -53 22 -35 65
-70 80 -64 14 5 14 3 0 -24 -13 -27 -13 -35 0 -66 16 -37 62 -73 109 -83 16
-3 27 -12 27 -22 0 -35 62 -81 128 -96 29 -6 32 -4 32 16 0 42 -42 109 -98
159 -32 27 -66 63 -77 80 -20 31 -54 46 -90 41 -16 -2 -18 0 -7 10 30 32 6
106 -57 172 -65 69 -119 85 -139 42z m102 -22 c77 -65 115 -160 75 -186 -13
-8 -32 5 -97 70 -45 44 -82 85 -82 91 0 6 5 23 10 37 9 23 14 26 37 20 15 -3
40 -18 57 -32z m228 -298 c78 -80 138 -168 125 -181 -3 -4 -22 -3 -41 0 -46 9
-96 56 -96 91 0 20 -4 26 -16 21 -20 -8 -88 28 -108 56 -19 27 -21 69 -4 86
28 28 57 12 140 -73z"/>
<path d="M3380 5793 c-27 -34 -23 -87 10 -133 25 -35 60 -40 90 -10 25 25 25
72 0 128 -16 36 -23 42 -49 42 -20 0 -36 -9 -51 -27z m86 -7 c24 -38 24 -114
-1 -132 -11 -8 -26 -13 -34 -12 -24 5 -51 52 -53 91 -2 67 55 102 88 53z"/>
<path d="M2491 2584 c-26 -21 -31 -33 -31 -68 0 -67 65 -155 133 -179 19 -7
35 7 70 63 13 20 33 36 46 38 19 3 22 8 16 30 -11 47 -55 111 -85 127 -47 24
-113 19 -149 -11z m139 1 c34 -18 80 -81 80 -110 0 -11 -10 -25 -22 -30 -13
-6 -33 -29 -46 -52 -28 -52 -48 -54 -97 -11 -63 55 -93 141 -62 180 31 39 96
49 147 23z"/>
</g>
</svg>
